#!OML:ASF E:\emotionWalksFemale\Project 1\Capture day 1\Session 1\Female1.ASF
:FULLY-SPECIFIED
:DEGREES
1449
root 7.63608 15.1165 -38.3022 354.517 16.3635 4.38232
lowerback 8.50669 -0.365837 3.0136
upperback -2.78578 -0.0253763 1.51647
thorax -7.72497 -0.115453 -0.0924899
lowerneck -7.33206 -3.46796 -3.38969
upperneck 13.0478 -3.25967 -7.29524
head 5.07939 -2.2302 -1.92516
rclavicle -3.02153e-014 -1.59028e-014
rhumerus -33.007 -9.18438 -75.6981
rradius 35.1038
rwrist 15.9517
rhand -17.3736 -48.4477
rfingers 7.12502
rthumb 8.87485 281.759
lclavicle -3.02153e-014 -1.59028e-014
lhumerus -54.7834 20.2644 65.0424
lradius 27.8411
lwrist -31.7943
lhand 4.65515 -24.3518
lfingers 7.12502
lthumb 30.041 3.22801
rfemur -1.84124 7.23738 26.5809
rtibia 36.6778
rfoot -24.6071 -25.1329
rtoes 3.88632
lfemur -7.9747 -15.0392 -19.4551
ltibia 31.5261
lfoot -19.4942 0.48647
ltoes -32.6168
1450
root 7.63623 15.1131 -38.3178 354.462 16.8331 4.28594
lowerback 8.77111 -0.450444 3.25692
upperback -2.77416 -0.102254 1.46219
thorax -7.86928 -0.167685 -0.272925
lowerneck -7.32354 -3.60723 -3.23654
upperneck 12.9238 -3.462 -7.41251
head 5.02914 -2.32532 -1.99635
rclavicle -5.66536e-014 1.59028e-015
rhumerus -33.7856 -11.5089 -75.157
rradius 34.74
rwrist 16.9164
rhand -17.5713 -48.5337
rfingers 7.12502
rthumb 8.68408 281.665
lclavicle -5.66536e-014 1.59028e-015
lhumerus -55.5782 20.088 64.8098
lradius 28.0216
lwrist -32.8984
lhand 7.5978 -24.397
lfingers 7.12502
lthumb 32.8445 2.63589
rfemur -1.72971 6.94855 26.593
rtibia 36.545
rfoot -25.5298 -24.6502
rtoes 6.09458
lfemur -8.23053 -15.0206 -19.3519
ltibia 31.7718
lfoot -19.6841 0.168741
ltoes -33.0849
1451
root 7.64691 15.1083 -38.3327 354.464 17.0764 4.18752
lowerback 8.9491 -0.491245 3.65526
upperback -2.78276 -0.103535 1.41383
thorax -7.98479 -0.190707 -0.546057
lowerneck -7.15458 -3.69474 -3.26244
upperneck 12.6735 -3.61173 -7.35811
head 4.92081 -2.38536 -1.97565
rclavicle 5.84427e-014 -7.95139e-015
rhumerus -34.5874 -13.7085 -74.4841
rradius 34.3272
rwrist 17.9928
rhand -17.8083 -49.1716
rfingers 7.12502
rthumb 8.45534 281.018
lclavicle 5.84427e-014 -7.95139e-015
lhumerus -56.2697 20.0214 64.5745
lradius 28.0757
lwrist -33.7883
lhand 10.5525 -24.7455
lfingers 7.12502
lthumb 35.6502 1.6562
rfemur -1.66811 6.7867 26.5476
rtibia 36.2843
rfoot -26.2947 -24.1884
rtoes 8.41958
lfemur -8.51687 -15.0738 -19.2887
ltibia 32.0607
lfoot -19.9455 0.0485456
ltoes -33.04
1452
root 7.64596 15.0881 -38.3332 354.527 17.4015 4.082
lowerback 8.87094 -0.519375 3.70315
upperback -2.82905 -0.136399 1.42969
thorax -7.99097 -0.209102 -0.551045
lowerneck -6.84361 -3.7782 -3.29608
upperneck 12.5002 -3.76929 -7.21714
head 4.81406 -2.44434 -1.92532
rclavicle 2.14687e-014 4.77083e-014
rhumerus -35.5537 -15.7076 -73.7951
rradius 33.8914
rwrist 18.6429
rhand -18.4523 -49.7306
rfingers 7.12502
rthumb 7.83384 280.435
lclavicle 2.14687e-014 4.77083e-014
lhumerus -56.9023 19.9362 64.28
lradius 28.0513
lwrist -34.3754
lhand 13.3391 -25.2594
lfingers 7.12502
lthumb 38.286 0.461475
rfemur -1.54925 6.93456 26.7962
rtibia 35.8971
rfoot -26.1141 -25.2142
rtoes 6.21914
lfemur -8.83419 -15.0117 -19.0999
ltibia 32.3439
lfoot -20.2705 -0.63278
ltoes -31.8257
1453
root 7.64851 15.07 -38.3304 354.45 17.6348 3.89634
lowerback 8.82286 -0.488423 3.8275
upperback -2.84738 -0.077662 1.48234
thorax -7.98151 -0.185115 -0.574494
lowerneck -6.53789 -3.92712 -3.27534
upperneck 12.3716 -4.00245 -7.20218
head 4.71696 -2.54744 -1.92769
rclavicle 2.84262e-014 -3.81667e-014
rhumerus -36.7033 -17.7479 -72.8634
rradius 33.5819
rwrist 18.9972
rhand -18.657 -50.32
rfingers 7.12502
rthumb 7.63622 279.838
lclavicle 2.84262e-014 -3.81667e-014
lhumerus -57.4327 19.783 64.1109
lradius 28.007
lwrist -34.6332
lhand 15.5298 -25.7128
lfingers 7.12502
lthumb 40.3502 -0.593335
rfemur -1.21038 7.46969 27.2512
rtibia 35.3954
rfoot -26.021 -26.4625
rtoes 4.70005
lfemur -9.04531 -14.8168 -18.8762
ltibia 32.6732
lfoot -20.6054 -0.985908
ltoes -32.1467
1454
root 7.64993 15.0594 -38.3213 354.325 18.0534 3.73004
lowerback 8.72025 -0.538533 3.81508
upperback -2.79045 -0.142829 1.61951
thorax -7.86294 -0.20999 -0.413864
lowerneck -6.46214 -4.0513 -3.46492
upperneck 12.259 -4.16831 -7.1394
head 4.67244 -2.62876 -1.88353
rclavicle 4.1546e-014 9.54166e-015
rhumerus -37.7614 -19.4743 -71.8896
rradius 33.408
rwrist 18.7902
rhand -19.2413 -52.7009
rfingers 7.12502
rthumb 7.0722 277.437
lclavicle 4.1546e-014 9.54166e-015
lhumerus -57.8725 20.0241 63.8903
lradius 27.9036
lwrist -34.746
lhand 17.1916 -25.8669
lfingers 7.12502
lthumb 41.9104 -1.24685
rfemur -0.66784 8.25809 27.7962
rtibia 34.809
rfoot -26.7393 -27.4454
rtoes 6.93923
lfemur -9.20803 -14.7673 -18.7096
ltibia 33.0194
lfoot -20.964 -1.00317
ltoes -34.4936
1455
root 7.65267 15.0418 -38.3287 354.366 18.1191 3.70439
lowerback 8.75061 -0.403364 3.66985
upperback -2.84335 0.0326566 1.72819
thorax -7.93054 -0.115534 -0.243906
lowerneck -6.09362 -4.2022 -3.70732
upperneck 12.0718 -4.40167 -6.96349
head 4.55852 -2.73145 -1.79086
rclavicle -2.16675e-014 1.90833e-014
rhumerus -39.0049 -20.9579 -70.8598
rradius 33.3473
rwrist 18.0992
rhand -20.6089 -55.893
rfingers 7.12502
rthumb 5.75193 274.205
lclavicle -2.16675e-014 1.90833e-014
lhumerus -58.2314 20.0345 63.8604
lradius 27.9238
lwrist -34.2847
lhand 18.6007 -25.9098
lfingers 7.12502
lthumb 43.2294 -1.7454
rfemur -0.448954 8.93202 28.1107
rtibia 34.284
rfoot -26.3767 -28.8226
rtoes 5.79875
lfemur -9.49541 -14.576 -18.6519
ltibia 33.3353
lfoot -21.2401 -1.15618
ltoes -36.112
1456
root 7.64518 15.0266 -38.3338 354.407 18.4776 3.55967
lowerback 8.79096 -0.372457 3.50653
upperback -2.92633 0.0715027 1.87603
thorax -8.04197 -0.086053 -0.000808819
lowerneck -5.76643 -4.33516 -3.99462
upperneck 11.918 -4.60621 -6.75365
head 4.46565 -2.82203 -1.68057
rclavicle 5.96354e-016 1.59028e-015
rhumerus -40.258 -22.2541 -69.788
rradius 33.2109
rwrist 17.3064
rhand -20.2762 -56.5468
rfingers 7.12502
rthumb 6.07317 273.56
lclavicle 5.96354e-016 1.59028e-015
lhumerus -58.5611 19.8182 64.0048
lradius 28.1092
lwrist -33.1074
lhand 19.5082 -26.1074
lfingers 7.12502
lthumb 44.0767 -2.25315
rfemur -0.234575 9.69172 28.6935
rtibia 33.8226
rfoot -25.9968 -30.5313
rtoes 5.18752
lfemur -9.87182 -14.4925 -18.407
ltibia 33.6377
lfoot -21.3754 -1.98666
ltoes -35.1885
1457
root 7.6388 15.0231 -38.3376 354.47 18.7583 3.28116
lowerback 8.77709 -0.297364 3.53731
upperback -3.04765 0.191217 2.01737
thorax -8.16263 -0.0272212 0.114099
lowerneck -5.4421 -4.47636 -4.10987
upperneck 11.8004 -4.82513 -6.65779
head 4.37727 -2.92011 -1.6337
rclavicle -1.11319e-014 -1.90833e-014
rhumerus -41.6135 -23.3172 -68.7439
rradius 33.1955
rwrist 16.1327
rhand -19.1528 -56.4308
rfingers 7.12502
rthumb 7.15761 273.71
lclavicle -1.11319e-014 -1.90833e-014
lhumerus -58.8627 19.5141 64.0806
lradius 28.3385
lwrist -31.7479
lhand 19.7523 -26.0414
lfingers 7.12502
lthumb 44.3043 -2.27297
rfemur -0.132394 10.467 29.3237
rtibia 33.4439
rfoot -26.402 -31.3898
rtoes 7.68284
lfemur -10.2951 -14.4717 -18.0237
ltibia 33.9544
lfoot -21.5066 -2.57416
ltoes -33.8978
